# xmcd
#
# Track frame offsets:
#	300
#	20239
#	40235
#	58844
#	89531
#	109441
#	134903
#	159912
#	178338
#	196716
#	219752
#	236921
#	257591
#	275641
#
# Disc length: 3910 seconds
#
# Revision: 0
# Processed by: cddbd v1.5.1PL0 Copyright (c) Steve Scherf et al.
# Submitted via: audiograbber 1.83.01
#
DISCID=d90f420e
DTITLE=Edson E Hudson - Acústico Ao Vivo (Tony Sorriso)
DYEAR=2002
DGENRE=Country
TTITLE0=Azul
TTITLE1=Mil Razões Para Chorar
TTITLE2=Deixa Eu Te Amar
TTITLE3=Festa Louca
TTITLE4=Meu Anjo
TTITLE5=Me Bate, Me Xinga
TTITLE6=Cidadão
TTITLE7=Mulher, Cerveja E Viola
TTITLE8=A Força Da Paixão
TTITLE9=Saudade
TTITLE10=Zoião
TTITLE11=Jura
TTITLE12=Te Quero Pra Mim
TTITLE13=Pot-Pourri: Pagode Em Brasilia - Pagode - A Coisa Tá Feia
EXTD=
EXTT0=
EXTT1=
EXTT2=
EXTT3=
EXTT4=
EXTT5=
EXTT6=
EXTT7=
EXTT8=
EXTT9=
EXTT10=
EXTT11=
EXTT12=
EXTT13=
PLAYORDER=
